<svg xmlns="http://www.w3.org/2000/svg" xmlns:xlink="http://www.w3.org/1999/xlink" width="307px" height="45px" viewBox="0 0 307 45"><title>logo gender</title><desc>Created with Sketch.</desc><defs><polygon id="path-1" points="0.335039216 0.538892308 35 0.538892308 35 8.60912308 0.335039216 8.60912308"></polygon></defs><g id="Welcome" stroke="none" stroke-width="1" fill="none" fill-rule="evenodd"><g id="Dise&#xF1;o-home" transform="translate(-566.000000, -65.000000)"><g id="logo-gender" transform="translate(566.000000, 65.000000)"><path d="M292.41153,37.6332784 L292.41153,32.3333333 C292.41153,28.8419806 289.508659,26 285.94102,26 L273,26 L273,28.5335941 L285.94102,28.5335941 C288.081204,28.5335941 289.823059,30.2385217 289.823059,32.3333333 L289.823059,37.6332784 C288.320334,38.1574703 287.235255,39.5507515 287.235255,41.2002608 C287.235255,43.2950724 288.97711,45 291.117294,45 C293.257479,45 295,43.2950724 295,41.2002608 C295,39.5507515 293.914255,38.1574703 292.41153,37.6332784" id="Fill-1" fill="#2DB8CF" fill-rule="nonzero"></path><g id="Group-5" transform="translate(272.000000, 22.000000)"><g id="Fill-3-Clipped"><mask id="mask-2" fill="white"><use xlink:href="#path-1"></use></mask><g id="path-1"></g><path d="M27.2459216,3.2292 L0.335039216,3.2292 L0.335039216,5.91881538 L27.2459216,5.91881538 C27.7983725,7.48066154 29.2642549,8.60912308 31.0005294,8.60912308 C33.2055294,8.60912308 35.0001373,6.79873846 35.0001373,4.57435385 C35.0001373,2.34996923 33.2055294,0.538892308 31.0005294,0.538892308 C29.2642549,0.538892308 27.7983725,1.66735385 27.2459216,3.2292" id="Fill-3" fill="#2DB8CF" fill-rule="nonzero" mask="url(#mask-2)"></path></g></g><path d="M298.361015,14.6666667 L298.361015,9.36672157 C299.893066,8.84252968 301,7.44859653 301,5.79973921 C301,3.70557958 299.224152,2 297.042201,2 C294.859572,2 293.083723,3.70557958 293.083723,5.79973921 C293.083723,7.44859653 294.189978,8.84252968 295.72203,9.36672157 L295.72203,14.6666667 C295.72203,16.7614783 293.946181,18.4664059 291.764231,18.4664059 L273,18.4664059 L273,21 L291.764231,21 C295.401494,21 298.361015,18.1580194 298.361015,14.6666667" id="Fill-6" fill="#2DB8CF" fill-rule="nonzero"></path><path d="M28.8,23.021968 L35.5090142,23.021968 L35.5090142,39.6841232 C33.5450708,41.3964263 31.2542538,42.7104254 28.6358878,43.6261207 C26.0181972,44.541816 23.3268924,45 20.5633243,45 C16.671907,45 13.1634181,44.0742126 10.0365069,42.2226377 C6.90824501,40.3717357 4.45399118,37.8137097 2.67307007,34.5478869 C0.890798237,31.2840826 0,27.6011172 0,23.4996636 C0,19.3995556 0.890798237,15.7165903 2.67307007,12.4514403 C4.45399118,9.18763593 6.91837539,6.62826431 10.0635212,4.77736227 C13.2086671,2.92578742 16.7455211,2 20.6727324,2 C23.871907,2 26.782028,2.57794433 29.3997186,3.73181455 C32.0180846,4.8870304 34.2177282,6.57914913 36,8.80817074 L31.5270988,13.5864718 C28.6176531,10.4013863 25.1084889,8.80817074 21.0002814,8.80817074 C18.3083013,8.80817074 15.9182065,9.42581089 13.8272958,10.6597456 C11.7357096,11.8943531 10.0999906,13.6261676 8.91878811,15.8558621 C7.73623487,18.0855565 7.1459713,20.6334903 7.1459713,23.4996636 C7.1459713,26.287118 7.73623487,28.795356 8.91878811,31.0250505 C10.0999906,33.2547449 11.7357096,35.0067438 13.8272958,36.2803743 C15.9182065,37.5546776 18.290742,38.1911565 20.9455773,38.1911565 C23.926611,38.1911565 26.544977,37.4746131 28.8,36.0415265 L28.8,23.021968 Z" id="Fill-8" fill="#5C4896" fill-rule="nonzero"></path><path d="M50.2687938,20.1743868 C48.7989659,21.6023727 47.9052316,23.502729 47.5862757,25.8754557 L63.6800689,25.8754557 C63.395968,23.5435092 62.529197,21.6526682 61.0771254,20.2042922 C59.6250539,18.7565959 57.8191714,18.0327477 55.659478,18.0327477 C53.5352972,18.0327477 51.7373064,18.7470805 50.2687938,20.1743868 M69.8941198,30.8832616 L47.6395446,30.8832616 C48.0288682,33.256668 49.0468966,35.1366342 50.69363,36.5245196 C52.3397056,37.9117253 54.3849695,38.6049884 56.8281062,38.6049884 C59.9433522,38.6049884 62.5114407,37.4393549 64.5297413,35.1067287 L68.0882373,39.751591 C66.8137288,41.4820299 65.2018505,42.788355 63.2552328,43.6732849 C61.3072998,44.5582147 59.1120938,45 56.6689571,45 C53.5523959,45 50.8080595,44.2972216 48.435948,42.8889461 C46.0631789,41.4820299 44.2309908,39.5205034 42.938726,37.007085 C41.6458036,34.492987 41,31.6472103 41,28.4697547 C41,25.3323996 41.6287049,22.5076926 42.8854571,19.9935946 C44.1422092,17.4801763 45.8869311,15.5193294 48.1176497,14.1110539 C50.3483684,12.7034581 52.8618727,12 55.659478,12 C58.4215706,12 60.8916706,12.693263 63.0691203,14.0811484 C65.2465701,15.4690338 66.9465723,17.4196857 68.1678119,19.933104 C69.3897091,22.447202 70,25.3534694 70,28.6512265 C70,29.1738924 69.9644874,29.917451 69.8941198,30.8832616" id="Fill-10" fill="#5C4896" fill-rule="nonzero"></path><path d="M100.752601,15.4962135 C102.917094,17.8274675 104,21.2842927 104,25.8666889 L104,44 L97.3463585,44 L97.3463585,26.8146788 C97.3463585,24.0501533 96.7604162,21.9659108 95.5891907,20.5626187 C94.4179653,19.1613294 92.7497764,18.4590157 90.5852832,18.4590157 C88.1367167,18.4590157 86.2022504,19.2794943 84.7832023,20.9184487 C83.3634951,22.5580706 82.6543006,24.918699 82.6543006,27.9996662 L82.6543006,44 L76,44 L76,12.3551624 L82.3346358,12.3551624 L82.3346358,16.4442034 C83.4340191,14.9834978 84.8181347,13.8766194 86.4863236,13.1262387 C88.1545125,12.375858 90.0349324,12 92.1295608,12 C95.713102,12 98.5874488,13.165627 100.752601,15.4962135" id="Fill-12" fill="#5C4896" fill-rule="nonzero"></path><path d="M130.010919,37.3400367 C131.322866,36.5196889 132.361999,35.3480537 133.12764,33.8258077 C133.892604,32.3035618 134.275763,30.5417093 134.275763,28.5382197 C134.275763,26.5360839 133.892604,24.7742314 133.12764,23.2513086 C132.361999,21.7297395 131.322866,20.5581042 130.010919,19.7364027 C128.698971,18.916055 127.222523,18.5045274 125.582251,18.5045274 C123.941978,18.5045274 122.46553,18.916055 121.153582,19.7364027 C119.841635,20.5581042 118.802503,21.7297395 118.037538,23.2513086 C117.271897,24.7742314 116.888738,26.5360839 116.888738,28.5382197 C116.888738,30.5417093 117.271897,32.3035618 118.037538,33.8258077 C118.802503,35.3480537 119.841635,36.5196889 121.153582,37.3400367 C122.46553,38.1617382 123.941978,38.571912 125.582251,38.571912 C127.222523,38.571912 128.698971,38.1617382 130.010919,37.3400367 L130.010919,37.3400367 Z M141,0 L141,44.5796733 L134.439587,44.5796733 L134.439587,40.433939 C133.309065,41.9568618 131.915205,43.0987155 130.256655,43.8588232 C128.597428,44.6196077 126.766252,45 124.762453,45 C121.955102,45 119.431398,44.320438 117.189985,42.9579297 C114.948573,41.5967752 113.189156,39.6636785 111.913764,37.1593165 C110.637019,34.6569851 110,31.7830606 110,28.5382197 C110,25.2940557 110.637019,22.4309608 111.913764,19.9469045 C113.189156,17.4635251 114.948573,15.541258 117.189985,14.1787498 C119.431398,12.8182721 121.955102,12.1366795 124.762453,12.1366795 C126.693818,12.1366795 128.461359,12.4967661 130.065075,13.2176163 C131.668792,13.9384664 133.03625,15.02008 134.166095,16.4617803 L134.166095,0 L141,0 Z" id="Fill-14" fill="#5C4896" fill-rule="nonzero"></path><path d="M155.268136,20.1743868 C153.798966,21.6023727 152.904574,23.502729 152.586276,25.8754557 L168.680069,25.8754557 C168.395968,23.5435092 167.528539,21.6526682 166.077125,20.2042922 C164.625054,18.7565959 162.818514,18.0327477 160.659478,18.0327477 C158.53464,18.0327477 156.737306,18.7470805 155.268136,20.1743868 M174.89412,30.8832616 L152.639545,30.8832616 C153.028868,33.256668 154.046897,35.1366342 155.692972,36.5245196 C157.339706,37.9117253 159.384969,38.6049884 161.828106,38.6049884 C164.943352,38.6049884 167.510783,37.4393549 169.529741,35.1067287 L173.088237,39.751591 C171.813071,41.4820299 170.20185,42.788355 168.254575,43.6732849 C166.306642,44.5582147 164.111436,45 161.668299,45 C158.552396,45 155.807402,44.2972216 153.435948,42.8889461 C151.063179,41.4820299 149.230333,39.5205034 147.938068,37.007085 C146.645804,34.492987 146,31.6472103 146,28.4697547 C146,25.3323996 146.628047,22.5076926 147.885457,19.9935946 C149.142209,17.4801763 150.886273,15.5193294 153.116992,14.1110539 C155.347711,12.7034581 157.861215,12 160.659478,12 C163.420913,12 165.891013,12.693263 168.06912,14.0811484 C170.245912,15.4690338 171.945915,17.4196857 173.167812,19.933104 C174.389051,22.447202 175,25.3534694 175,28.6512265 C175,29.1738924 174.964487,29.917451 174.89412,30.8832616" id="Fill-16" fill="#5C4896" fill-rule="nonzero"></path><path d="M198,12 L198,19.0518432 C197.412807,18.9330107 196.880109,18.8735944 196.403951,18.8735944 C193.726839,18.8735944 191.635559,19.7141009 190.132153,21.3924436 C188.628065,23.0721215 187.876703,25.4914986 187.876703,28.6512424 L187.876703,44 L181,44 L181,12.3551624 L187.546322,12.3551624 L187.546322,16.9776146 C189.527248,13.6589823 193.01158,12 198,12" id="Fill-18" fill="#5C4896" fill-rule="nonzero"></path><path d="M215.485681,37.6151178 C216.99194,38.9178991 218.945589,39.5679508 221.347298,39.5679508 C224.033649,39.5679508 226.129284,38.9580671 227.636212,37.7376301 C229.141132,36.5171931 229.894596,34.9513115 229.894596,33.0386465 C229.894596,31.2484937 229.437159,29.7535756 228.520947,28.5532226 C227.605404,27.3542085 226.475543,26.3975412 225.132032,25.6852291 C223.789192,24.9735865 221.936674,24.150143 219.57649,23.2135597 C217.052887,22.2374779 215.028245,21.3323596 213.501894,20.4982046 C211.976212,19.6647191 210.683603,18.5246181 209.626074,17.0805794 C208.566536,15.6365407 208.038106,13.7955085 208.038106,11.5574828 C208.038106,9.76733005 208.545774,8.06956363 209.564457,6.46150569 C210.581801,4.85478668 212.128245,3.54263283 214.205127,2.52504412 C216.28,1.50946382 218.822356,1 221.836212,1 C223.829376,1 225.478291,1.14326578 226.780947,1.42711947 C228.082933,1.71231209 229.406351,2.180269 230.748522,2.8309902 L228.978383,8.07893616 C226.577344,7.10218489 224.21649,6.61481346 221.89649,6.61481346 C219.373557,6.61481346 217.429284,7.07205891 216.066351,7.98721928 C214.702079,8.90304911 214.020277,10.1335281 214.020277,11.6793257 C214.020277,12.6969144 214.386628,13.5926602 215.11933,14.3645548 C215.852702,15.1377883 216.758199,15.7985515 217.83649,16.3475138 C218.914781,16.8978151 220.451178,17.5994157 222.446351,18.4529852 C225.255266,19.5930862 227.56388,20.6809689 229.375543,21.7179721 C231.186536,22.7556448 232.743695,24.1595155 234.047021,25.9289149 C235.347667,27.6989836 236,29.9062139 236,32.5506056 C236,36.2119165 234.798476,39.2024223 232.397436,41.5214534 C229.995727,43.8404845 226.332217,45 221.408915,45 C218.395727,45 215.822564,44.4396567 213.685404,43.3216481 C211.548915,42.2036395 209.920092,40.7582618 208.801617,38.988193 C207.681801,37.2194632 207.081039,35.378431 207,33.4657659 L212.921894,32.7949607 C213.124827,34.7069564 213.980092,36.3143448 215.485681,37.6151178" id="Fill-20" fill="#2DB8CF" fill-rule="nonzero"></path><polygon id="Fill-22" fill="#2DB8CF" fill-rule="nonzero" points="241.5152 7.5285618 232 7.5285618 232 2 257 2 257 7.5285618 247.175063 7.5285618 247.175063 45 241.5152 45"></polygon><polygon id="Fill-24" fill="#2DB8CF" fill-rule="nonzero" points="261 2 267 2 267 45 261 45 261 7.40582981"></polygon></g></g></g></svg>